# xmcd
# 
# Track frame offsets:
#     150
#     13495
#     28900
#     56372
#     73428
#     83420
#     96905
#     123520
#     142733
#     169233
#     200725
#     214465
#     231868
# 
# Disc length: 3675
# 
# Revision: 2
# Processed by: cddbd v1.5.2PL0 Copyright (c) Steve Scherf et al.
# Submitted via: fre:ac v1.0.17
# 
DISCID=c30e590d
DTITLE=Cuby and Blizzards - Travelling with the blues
DYEAR=0
DGENRE=
TTITLE0=Another day, another road
TTITLE1=Just for fun
TTITLE2=Too blind to see
TTITLE3=Distant smile
TTITLE4=Appleknockers flophouse
TTITLE5=For real
TTITLE6=Somebody will know someday
TTITLE7=No news is good news
TTITLE8=Brother booze
TTITLE9=Five long years
TTITLE10=Travelling with the blues
TTITLE11=The zoo
TTITLE12=Hobo blues
EXTD=
EXTT0=
EXTT1=
EXTT2=
EXTT3=
EXTT4=
EXTT5=
EXTT6=
EXTT7=
EXTT8=
EXTT9=
EXTT10=
EXTT11=
EXTT12=
PLAYORDER=
